<svg width="800" height="520" viewBox="0 0 800 520" fill="none" xmlns="http://www.w3.org/2000/svg">
<rect width="800" height="520" rx="32" fill="#E0F2FE"/>
<rect x="56" y="52" width="688" height="416" rx="28" fill="white"/>
<rect x="92" y="100" width="300" height="18" rx="9" fill="#BFDBFE"/>
<rect x="92" y="134" width="220" height="12" rx="6" fill="#E2E8F0"/>
<rect x="92" y="180" width="180" height="144" rx="24" fill="#DBEAFE"/>
<rect x="294" y="180" width="180" height="144" rx="24" fill="#DCFCE7"/>
<rect x="496" y="180" width="180" height="144" rx="24" fill="#FEF3C7"/>
<rect x="92" y="354" width="584" height="20" rx="10" fill="#E2E8F0"/>
<rect x="92" y="392" width="430" height="14" rx="7" fill="#E2E8F0"/>
<circle cx="623" cy="128" r="46" fill="#2563EB" opacity="0.12"/>
<circle cx="650" cy="142" r="28" fill="#2563EB" opacity="0.18"/>
<path d="M563 265C563 218.056 601.056 180 648 180H676C692.569 180 706 193.431 706 210V294C706 310.569 692.569 324 676 324H648C601.056 324 563 285.944 563 239V265Z" fill="#2563EB" opacity="0.9"/>
<circle cx="635" cy="225" r="22" fill="white"/>
<rect x="611" y="260" width="72" height="14" rx="7" fill="white" opacity="0.9"/>
<rect x="611" y="282" width="52" height="12" rx="6" fill="white" opacity="0.75"/>
</svg>
